<svg width="69" height="39" viewBox="0 0 69 39" fill="none" xmlns="http://www.w3.org/2000/svg">
<path d="M11.6698 17.9561C12.2652 16.7208 27.8606 25.4974 29.1064 23.1034C30.3272 20.7572 15.4724 11.9902 17.0134 7.35047C18.3843 3.21832 32.7338 2.45222 41.6147 10.3622C44.8768 13.2686 49.8251 19.5027 48.179 24.468C46.673 28.9975 39.9736 31.5544 38.6027 29.8833C35.6657 26.3162 52.5869 -1.76132 61.0825 0.891295C66.8714 2.7012 70.839 19.4261 64.3947 28.3559C60.292 34.0394 53.3975 34.5853 48.7344 34.8821C28.0557 36.1893 11.0044 19.3495 11.6698 17.9561Z" fill="#A1C2E1"/>
<path d="M1.0078 28.4039C1.45309 27.2068 22.0817 32.2344 23.0574 29.8978C24.013 27.6043 4.27496 22.4522 5.11552 18.0759C5.86601 14.1784 22.9273 10.9799 35.3055 16.424C39.8535 18.4254 47.1483 23.0747 46.2477 27.7575C45.4222 32.0333 37.9372 35.4663 35.9209 34.231C31.6281 31.5928 45.8525 3.76901 56.6246 4.62608C63.9645 5.21023 72.365 19.316 66.5612 28.3512C62.8687 34.1017 54.7083 35.7967 49.1747 36.874C24.6334 41.667 0.502466 29.7541 1.0078 28.4039Z" stroke="#3C4153" stroke-miterlimit="10"/>
</svg>
