<svg width="128" height="46" viewBox="0 0 128 46" fill="none" xmlns="http://www.w3.org/2000/svg">
<g clip-path="url(#clip0_29_111)">
<path d="M19.28 13.17C19.28 21.08 15.13 26.27 9.64 26.27C4.15 26.27 0 21.09 0 13.17C0 5.24998 4.15 0.039978 9.64 0.039978C15.13 0.039978 19.28 5.26998 19.28 13.18V13.17ZM9.64 25.45C14.96 25.45 18.21 19.89 18.21 13.17C18.21 6.44998 14.96 0.859978 9.64 0.859978C4.32 0.859978 1.06 6.45998 1.06 13.17C1.06 19.88 4.32 25.45 9.63 25.45H9.64Z" fill="black"/>
<path d="M22.8 0.52002H26.92V1.53002H26.69L22.8 1.27002V0.52002ZM22.8 25.04L26.69 24.78H26.92V25.79H22.8V25.04ZM26.42 14.22V12.09C26.42 8.21002 26.42 4.33002 26.35 0.52002H27.48C27.41 4.33002 27.41 8.21002 27.41 12.46V14.21C27.41 18.09 27.41 21.97 27.48 25.78H26.35C26.42 21.97 26.42 18.09 26.42 14.21V14.22ZM26.92 0.52002H37.62L37.95 6.23002H37.15L36.52 0.52002L36.99 1.34002H26.92V0.52002ZM26.92 24.97H31.51C35.76 24.97 37.99 22.84 37.99 18.85C37.99 15.15 36 12.65 30.88 12.65C29.58 12.65 28.32 12.73 26.92 13.06V12.31C28.45 11.97 29.84 11.9 31.27 11.9C36.42 11.86 38.98 14.7 38.98 18.84C38.98 23.21 36.12 25.78 31.67 25.78H26.92V24.96V24.97Z" fill="black"/>
<path d="M42.17 24.07C43 24.07 43.1 24.48 43.9 25.26L43 25.41C44.93 24.33 46.36 23.28 47.65 17.91C49.08 12.05 49.54 6.38002 49.84 0.52002H50.67C50.37 6.42002 49.87 12.2 48.44 18.17C47.04 24.03 44.85 26.27 42.59 26.27C41.49 26.27 40.93 25.67 40.93 24.85C41.2 24.29 41.69 24.07 42.16 24.07H42.17ZM46.43 0.52002H50.22V1.53002H49.99L46.43 1.27002V0.52002ZM50.22 0.52002H57.27V1.34002H50.22V0.52002ZM53.14 25.04L57.03 24.78H57.5L61.39 25.04V25.79H53.15V25.04H53.14ZM56.73 14.22V12.09C56.73 8.21002 56.73 4.33002 56.66 0.52002H57.79C57.72 4.33002 57.72 8.21002 57.72 12.09V14.22C57.72 18.1 57.72 21.98 57.79 25.79H56.66C56.73 21.98 56.73 18.18 56.73 14.22ZM57.26 0.52002H61.38V1.27002L57.49 1.53002H57.26V0.52002Z" fill="black"/>
<path d="M64.11 25.04L67 24.82H67.47L70.69 25.04V25.79H64.11V25.04ZM73.91 0.26001H74.57L82.18 25.79H81.12L73.94 1.27001L74.5 0.90001L67.49 25.79H66.53L73.91 0.26001ZM69.76 15.82H79L79.27 16.57H69.47L69.77 15.82H69.76ZM77.1 25.04L81.09 24.82H81.56L85.35 25.04V25.79H77.11V25.04H77.1Z" fill="black"/>
<path d="M87.01 0.52H95.25V1.27L91.36 1.53H90.89L87 1.27V0.52H87.01ZM87.01 25.04L90.9 24.78H91.37L95.26 25.04V25.79H87.02V25.04H87.01ZM90.63 14.22V12.09C90.63 8.21 90.63 4.33 90.56 0.52H91.69C91.62 4.33 91.62 8.21 91.62 12.46V12.95C91.62 18.1 91.62 21.98 91.69 25.79H90.56C90.63 21.98 90.63 18.1 90.63 14.22ZM99.54 17.95C98.24 14.29 96.88 13.06 93.82 13.06H91.13V12.31H93.96C96.55 12.31 97.35 11.53 99.51 6.34C101.54 1.49 102.63 0.07 104.69 0C105.25 0.11 105.62 0.52 105.62 1.04C105.62 1.56 105.29 1.97 104.49 1.97C103.93 1.97 103.23 1.78 102.16 1.67L103.16 1.22C101.83 2.94 101.13 4.21 100.14 6.6C97.91 11.97 96.95 12.53 94.32 12.98L94.59 12.42C98.05 12.68 99.61 15.22 100.44 17.57L103.13 25.15L102.53 24.85L106.68 25.11V25.78C106.15 25.86 105.45 25.97 104.49 25.97C102.73 25.97 102.26 25.67 101.87 24.51L99.54 17.94V17.95Z" fill="black"/>
<path d="M127.82 13.17C127.82 21.08 123.67 26.27 118.18 26.27C112.69 26.27 108.54 21.08 108.54 13.17C108.54 5.25998 112.7 0.039978 118.18 0.039978C123.66 0.039978 127.82 5.26998 127.82 13.18V13.17ZM118.18 25.45C123.5 25.45 126.75 19.89 126.75 13.17C126.75 6.44998 123.49 0.849978 118.18 0.849978C112.87 0.849978 109.61 6.44998 109.61 13.17C109.61 19.89 112.87 25.45 118.18 25.45Z" fill="black"/>
<path d="M57.42 42.97C57.42 41.86 56.92 41.27 55.35 40.57L54.82 40.33C53.34 39.67 52.54 38.76 52.54 37.33C52.54 35.51 53.87 34.62 55.42 34.62C56.41 34.62 57.06 34.92 57.7 35.41L57.64 37.37H57.11L56.86 35.22L57.35 35.52V35.96C56.71 35.37 56.16 35.15 55.38 35.15C54.13 35.15 53.21 35.82 53.21 37.17C53.21 38.31 53.86 38.95 54.94 39.43L55.5 39.68C57.5 40.57 58.09 41.41 58.09 42.85C58.09 44.65 56.75 45.74 54.92 45.74C53.83 45.74 52.83 45.33 52.24 44.89L52.32 42.8H52.82L53.08 45.02L52.55 44.74V44.28C53.38 44.97 53.95 45.21 54.91 45.21C56.37 45.21 57.41 44.47 57.41 42.98L57.42 42.97Z" fill="black"/>
<path d="M59.49 35.28V34.83H61.33V35.44H61.21L59.49 35.28ZM61.45 44.9L63.26 45.06V45.51H59.5V45.06L61.22 44.9H61.45ZM60.95 39.74C60.95 38.1 60.95 36.45 60.92 34.83H61.75C61.72 36.44 61.72 38.09 61.72 39.74V40.76C61.72 42.3 61.72 43.88 61.75 45.51H60.92C60.95 43.9 60.95 42.25 60.95 40.6V39.74ZM62.62 41.12H61.33V40.64H62.6C64.78 40.64 65.62 39.52 65.62 37.93C65.62 36.25 64.83 35.34 62.99 35.34H61.33V34.84H63.14C65.33 34.84 66.42 36.05 66.42 37.94C66.42 39.83 65.25 41.14 62.62 41.14V41.12Z" fill="black"/>
<path d="M66.24 45.07L67.54 44.92H67.77L69.21 45.07V45.52H66.23V45.07H66.24ZM70.42 34.74H70.93L74.16 45.52H73.36L70.4 35.49L70.67 35.4L67.74 45.52H67.23L70.42 34.74ZM68.7 41.3H72.57L72.73 41.78H68.53L68.7 41.3ZM71.68 45.07L73.41 44.92H73.64L75.31 45.07V45.52H71.69V45.07H71.68Z" fill="black"/>
</g>
<defs>
<clipPath id="clip0_29_111">
<rect width="127.82" height="45.73" fill="white"/>
</clipPath>
</defs>
</svg>
